<?xml version="1.0" encoding="UTF-8" standalone="no"?>
<svg width="250px" height="250px" viewBox="0 0 250 250" version="1.1" xmlns="http://www.w3.org/2000/svg" xmlns:xlink="http://www.w3.org/1999/xlink">
    <!-- Generator: Sketch 3.6.1 (26313) - http://www.bohemiancoding.com/sketch -->
    <title>illustration-ended</title>
    <desc>Created with Sketch.</desc>
    <defs>
        <circle id="path-1" cx="125" cy="125" r="125"></circle>
        <rect id="path-3" x="1.8189894e-12" y="-9.09494702e-13" width="14" height="34"></rect>
    </defs>
    <g id="Desktop" stroke="none" stroke-width="1" fill="none" fill-rule="evenodd">
        <g id="Room---Attendee---Ended" transform="translate(-595.000000, -304.000000)">
            <g id="illustration-ended" transform="translate(595.000000, 304.000000)">
                <g id="character">
                    <mask id="mask-2" fill="white">
                        <use xlink:href="#path-1"></use>
                    </mask>
                    <use id="background" fill="#E4E4E4" xlink:href="#path-1"></use>
                    <g id="body" mask="url(#mask-2)" fill="#FFFFFF">
                        <g transform="translate(55.000000, 75.000000)">
                            <path d="M0,0 L140,0 L140,100 L0,100 L0,0 Z"></path>
                        </g>
                    </g>
                    <g id="face" mask="url(#mask-2)" fill="#71777C">
                        <g transform="translate(108.000000, 111.000000)">
                            <circle id="eye-left" stroke="none" cx="2" cy="3" r="2"></circle>
                            <path d="M31.0909091,5 C32.1954786,5 33.0909091,4.1045695 33.0909091,3 C33.0909091,1.8954305 32.1954786,1 31.0909091,1 C29.9863396,1 29.0909091,1.8954305 29.0909091,3 C29.0909091,4.1045695 29.9863396,5 31.0909091,5 Z" id="eye-right" stroke="none"></path>
                            <path d="M12,14 C12,14 13.8401826,17 17.2058056,17 C20.5714286,17 22,14 22,14 L12,14 Z" id="open-smiling" stroke="#71777C" stroke-width="2" stroke-linecap="round" stroke-linejoin="round"></path>
                        </g>
                    </g>
                    <g id="hand-right" mask="url(#mask-2)">
                        <g transform="translate(197.878680, 130.121320) rotate(-302.000000) translate(-197.878680, -130.121320) translate(190.878680, 113.121320)">
                            <mask id="mask-4" fill="white">
                                <use xlink:href="#path-3"></use>
                            </mask>
                            <use id="Mask" stroke="none" fill="#FFFFFF" fill-rule="evenodd" xlink:href="#path-3"></use>
                        </g>
                    </g>
                </g>
            </g>
        </g>
    </g>
</svg>