<?xml version="1.0" encoding="UTF-8" standalone="no"?>
<svg width="108px" height="23px" viewBox="0 0 108 23" version="1.1" xmlns="http://www.w3.org/2000/svg" xmlns:xlink="http://www.w3.org/1999/xlink">
    <!-- Generator: Sketch 3.6.1 (26313) - http://www.bohemiancoding.com/sketch -->
    <title>logo copy</title>
    <desc>Created with Sketch.</desc>
    <defs></defs>
    <g id="Desktop" stroke="none" stroke-width="1" fill="none" fill-rule="evenodd">
        <g id="Room---Attendee" transform="translate(-40.000000, -23.000000)" fill="#3A3B3D">
            <g id="Header">
                <g id="logo-copy" transform="translate(40.000000, 23.000000)">
                    <path d="M17.496,18 L10.776,1.92 L6.72,1.92 L0,18 L4.248,18 L5.376,15.072 L12.144,15.072 L13.272,18 L17.496,18 Z M10.824,11.664 L6.72,11.664 L8.76,6.384 L10.824,11.664 Z M18.072,14.856 C18.48,17.328 20.904,18.36 23.736,18.36 C26.904,18.36 29.208,16.968 29.208,14.304 C29.208,12.528 28.152,11.16 25.872,10.68 L23.04,10.104 C22.272,9.936 22.128,9.6 22.128,9.264 C22.128,8.832 22.464,8.328 23.496,8.328 C24.672,8.328 25.392,9 25.512,9.744 L29.016,9.048 C28.536,6.96 26.544,5.592 23.544,5.592 C20.496,5.592 18.36,7.2 18.36,9.672 C18.36,11.568 19.632,12.768 21.864,13.176 L24.312,13.656 C25.2,13.824 25.512,14.136 25.512,14.544 C25.512,15.072 24.96,15.504 23.952,15.504 C22.92,15.504 21.984,15.12 21.816,14.088 L18.072,14.856 Z M44.616,18 L38.784,11.688 L44.064,5.952 L39.432,5.952 L35.616,10.056 L35.088,10.056 L35.088,0.72 L31.248,0.72 L31.248,18 L35.088,18 L35.088,13.656 L35.784,13.656 L39.696,18 L44.616,18 Z M57.816,5.952 L53.976,5.952 L53.976,6.912 C53.04,6.072 51.792,5.592 50.232,5.592 C47.04,5.592 44.352,8.184 44.352,11.976 C44.352,15.792 47.04,18.36 50.232,18.36 C51.792,18.36 53.04,17.88 53.976,17.04 L53.976,18 L57.816,18 L57.816,5.952 Z M51.024,15.096 C49.344,15.096 48.12,13.848 48.12,11.976 C48.12,10.128 49.344,8.856 51.024,8.856 C52.584,8.856 53.976,10.128 53.976,11.976 C53.976,13.848 52.584,15.096 51.024,15.096 L51.024,15.096 Z M78.12,5.952 L74.352,5.952 L72.384,12.456 L70.104,5.952 L67.392,5.952 L65.112,12.432 L63.144,5.952 L59.376,5.952 L63.24,18.024 L66.576,18.024 L68.76,11.496 L70.92,18.024 L74.256,18.024 L78.12,5.952 Z M92.088,5.952 L88.248,5.952 L88.248,6.912 C87.312,6.072 86.064,5.592 84.504,5.592 C81.312,5.592 78.624,8.184 78.624,11.976 C78.624,15.792 81.312,18.36 84.504,18.36 C86.064,18.36 87.312,17.88 88.248,17.04 L88.248,18 L92.088,18 L92.088,5.952 Z M85.296,15.096 C83.616,15.096 82.392,13.848 82.392,11.976 C82.392,10.128 83.616,8.856 85.296,8.856 C86.856,8.856 88.248,10.128 88.248,11.976 C88.248,13.848 86.856,15.096 85.296,15.096 L85.296,15.096 Z M107.808,5.928 L103.68,5.928 L100.632,12.96 L97.776,5.928 L93.648,5.928 L98.64,17.592 L96.696,22.08 L100.848,22.08 L107.808,5.928 Z" id="logo"></path>
                </g>
            </g>
        </g>
    </g>
</svg>