<?xml version="1.0" encoding="UTF-8" standalone="no"?>
<svg width="16px" height="15px" viewBox="0 0 16 15" version="1.1" xmlns="http://www.w3.org/2000/svg" xmlns:xlink="http://www.w3.org/1999/xlink">
    <!-- Generator: Sketch 3.6.1 (26313) - http://www.bohemiancoding.com/sketch -->
    <title>calendar</title>
    <desc>Created with Sketch.</desc>
    <defs>
        <path id="path-1" d="M0,0 L16,0 L16,14.4347826 L0,14.4347826"></path>
        <path id="path-3" d="M0,0 L16,0 L16,14.4347826 L0,14.4347826"></path>
    </defs>
    <g id="Desktop" stroke="none" stroke-width="1" fill="none" fill-rule="evenodd">
        <g id="Rooms---Default" transform="translate(-233.000000, -520.000000)">
            <g id="Room-Tile" transform="translate(150.000000, 271.000000)">
                <g id="Footer" transform="translate(80.000000, 218.000000)">
                    <g id="calendar" transform="translate(3.000000, 31.000000)">
                        <g id="Group-3">
                            <mask id="mask-2" fill="white">
                                <use xlink:href="#path-1"></use>
                            </mask>
                            <g id="Clip-2"></g>
                            <path d="M4.63553043,3.96636522 C4.15535652,3.96636522 3.76596522,3.57714783 3.76596522,3.0968 L3.76596522,0.869495652 C3.76596522,0.389321739 4.15535652,-6.95652179e-05 4.63553043,-6.95652179e-05 C5.11570435,-6.95652179e-05 5.50509565,0.389321739 5.50509565,0.869495652 L5.50509565,3.0968 C5.50509565,3.57714783 5.11570435,3.96636522 4.63553043,3.96636522" id="Fill-1" fill="#71777C" mask="url(#mask-2)"></path>
                        </g>
                        <g id="Group-6">
                            <mask id="mask-4" fill="white">
                                <use xlink:href="#path-3"></use>
                            </mask>
                            <g id="Clip-5"></g>
                            <path d="M11.3740696,3.96636522 C10.8938957,3.96636522 10.5045043,3.57714783 10.5045043,3.0968 L10.5045043,0.869495652 C10.5045043,0.389321739 10.8938957,-6.95652179e-05 11.3740696,-6.95652179e-05 C11.8542435,-6.95652179e-05 12.2436348,0.389321739 12.2436348,0.869495652 L12.2436348,3.0968 C12.2436348,3.57714783 11.8542435,3.96636522 11.3740696,3.96636522" id="Fill-4" fill="#71777C" mask="url(#mask-4)"></path>
                        </g>
                        <path d="M15.3043478,6.71653913 L0.695652174,6.71653913 C0.359478261,6.71653913 0.0869565217,6.44401739 0.0869565217,6.10784348 C0.0869565217,5.77166957 0.359478261,5.49914783 0.695652174,5.49914783 L15.3043478,5.49914783 C15.6405217,5.49914783 15.9130435,5.77166957 15.9130435,6.10784348 C15.9130435,6.44401739 15.6405217,6.71653913 15.3043478,6.71653913" id="Fill-7" fill="#71777C"></path>
                        <path d="M15.3043478,14.4347826 L0.695652174,14.4347826 C0.311478261,14.4347826 0,14.1233043 0,13.7391304 L0,1.9773913 C0,1.59321739 0.311478261,1.28173913 0.695652174,1.28173913 L2.32156522,1.28173913 C2.70573913,1.28173913 3.01721739,1.59321739 3.01721739,1.9773913 C3.01721739,2.36156522 2.70573913,2.67304348 2.32156522,2.67304348 L1.39130435,2.67304348 L1.39130435,13.0434783 L14.6086957,13.0434783 L14.6086957,2.67304348 L13.6784348,2.67304348 C13.2942609,2.67304348 12.9827826,2.36156522 12.9827826,1.9773913 C12.9827826,1.59321739 13.2942609,1.28173913 13.6784348,1.28173913 L15.3043478,1.28173913 C15.6885217,1.28173913 16,1.59321739 16,1.9773913 L16,13.7391304 C16,14.1233043 15.6885217,14.4347826 15.3043478,14.4347826" id="Fill-9" fill="#71777C"></path>
                        <path d="M9.09765217,2.67306087 L6.90217391,2.67306087 C6.518,2.67306087 6.20652174,2.36158261 6.20652174,1.9774087 C6.20652174,1.59323478 6.518,1.28175652 6.90217391,1.28175652 L9.09765217,1.28175652 C9.48182609,1.28175652 9.79330435,1.59323478 9.79330435,1.9774087 C9.79330435,2.36158261 9.48182609,2.67306087 9.09765217,2.67306087" id="Fill-11" fill="#71777C"></path>
                    </g>
                </g>
            </g>
        </g>
    </g>
</svg>