<?xml version="1.0" encoding="UTF-8" standalone="no"?>
<svg width="24px" height="24px" viewBox="0 0 24 24" version="1.1" xmlns="http://www.w3.org/2000/svg" xmlns:xlink="http://www.w3.org/1999/xlink">
    <!-- Generator: Sketch 3.6.1 (26313) - http://www.bohemiancoding.com/sketch -->
    <title>cog</title>
    <desc>Created with Sketch.</desc>
    <defs>
        <path id="path-1" d="M0,0 L24,0 L24,24 L0,24 L0,0 Z"></path>
    </defs>
    <g id="Desktop" stroke="none" stroke-width="1" fill="none" fill-rule="evenodd">
        <g id="Rooms---List" transform="translate(-1323.000000, -92.000000)">
            <g id="Space-Subheader" transform="translate(0.000000, 64.000000)">
                <g id="cog" transform="translate(1323.000000, 28.000000)">
                    <path d="M12.0002637,8.82126593 C10.2450989,8.82126593 8.81696703,10.2491341 8.81696703,12.0042989 C8.81696703,13.7597275 10.2450989,15.1875956 12.0002637,15.1875956 C13.7551648,15.1875956 15.183033,13.7597275 15.183033,12.0042989 C15.183033,10.2491341 13.7551648,8.82126593 12.0002637,8.82126593 M12.0002637,17.0337495 C9.22707692,17.0337495 6.97081319,14.7774857 6.97081319,12.0042989 C6.97081319,9.23137582 9.22707692,6.97511209 12.0002637,6.97511209 C14.7731868,6.97511209 17.0291868,9.23137582 17.0291868,12.0042989 C17.0291868,14.7774857 14.7731868,17.0337495 12.0002637,17.0337495" id="Fill-1" fill="#71777C"></path>
                    <g id="Group-5">
                        <mask id="mask-2" fill="white">
                            <use xlink:href="#path-1"></use>
                        </mask>
                        <g id="Clip-4"></g>
                        <path d="M11.052844,22.1265495 C11.2902066,22.1418462 11.5689758,22.153978 11.8575033,22.153978 L11.9996571,22.153978 C12.2905582,22.153978 12.5701187,22.1418462 12.8072176,22.1265495 L13.0511736,20.4064615 C13.1049758,20.0277363 13.3863824,19.7215385 13.7590418,19.6363516 C14.5681846,19.4506813 15.3396132,19.1384176 16.0519648,18.7082637 C16.3966681,18.4999121 16.8239209,18.5431648 17.1185143,18.7876484 L18.4912615,19.8299341 C18.669811,19.6727473 18.8752615,19.4844396 19.0791297,19.2805714 L19.1796132,19.1800879 C19.3848,18.9751648 19.5741626,18.7686593 19.7313495,18.5893187 L18.6917011,17.2044396 C18.4622505,16.8987692 18.444844,16.4833846 18.6481846,16.1595165 C19.0799209,15.4716923 19.3995692,14.7261099 19.5992176,13.9428132 C19.6662066,13.551956 19.9779429,13.241011 20.3814593,13.1856264 L22.1266022,12.9464176 C22.1416352,12.7093187 22.153767,12.4308132 22.153767,12.1425495 L22.153767,12.0001319 C22.153767,11.7092308 22.1416352,11.4296703 22.1263385,11.1923077 L20.4115253,10.9480879 C20.0335912,10.8942857 19.7276571,10.6134066 19.6422066,10.241011 C19.4583824,9.44083516 19.1503385,8.67784615 18.7265143,7.97261538 C18.6824703,7.9050989 18.6471297,7.83151648 18.6220747,7.75292308 C18.529767,7.46597802 18.5822505,7.15186813 18.764756,6.91186813 L19.8297231,5.50852747 C19.6728,5.32997802 19.4844923,5.12479121 19.2806242,4.92118681 L19.1798769,4.82043956 C18.9744264,4.61498901 18.7681846,4.42589011 18.5896352,4.2687033 L17.2008,5.31257143 C16.8727121,5.55916484 16.4254154,5.55784615 16.1002286,5.3189011 C15.4100308,4.89507692 14.6633934,4.58254945 13.8795692,4.38975824 C13.5119209,4.29956044 13.2365802,3.99389011 13.1851516,3.61859341 L12.9464703,1.87345055 C12.7091077,1.85815385 12.4306022,1.84628571 12.1423385,1.84628571 L12.0001846,1.84628571 C11.7103385,1.84628571 11.4305143,1.85815385 11.1926242,1.87371429 L10.9486681,3.5938022 C10.8906462,4.00206593 10.5709978,4.31749451 10.1724923,4.3770989 C9.38787692,4.56435165 8.63965714,4.87134066 7.94761319,5.29015385 C7.73662418,5.4178022 7.48343736,5.45525275 7.24449231,5.39564835 C7.10682198,5.3610989 6.98075604,5.29569231 6.87420659,5.20602198 L5.50884396,4.17006593 C5.33029451,4.32725275 5.12458022,4.51556044 4.92097582,4.71942857 L4.82049231,4.81991209 C4.61451429,5.02562637 4.42567912,5.23186813 4.26849231,5.41041758 L5.31236044,6.79951648 C5.54181099,7.10465934 5.55974505,7.51951648 5.3571956,7.84338462 C5.34295385,7.86632967 5.32765714,7.88874725 5.31130549,7.91010989 C4.88985495,8.59661538 4.57890989,9.34035165 4.38664615,10.1207473 C4.29592088,10.4878681 3.99051429,10.7626813 3.61574505,10.8141099 L1.8735033,11.0535824 C1.85820659,11.2906813 1.84607473,11.5694505 1.84607473,11.8577143 L1.84607473,11.9998681 C1.84607473,12.2894505 1.85820659,12.5695385 1.87376703,12.8074286 L3.59385495,13.0516484 C4.00475604,13.1099341 4.32625055,13.4351209 4.37952527,13.8468132 C4.38058022,13.8552527 4.38163516,13.8634286 4.38242637,13.8718681 C4.57047033,14.6417143 4.87403077,15.375956 5.28545934,16.0561319 C5.42603077,16.287956 5.45715165,16.5701538 5.37117363,16.827033 C5.3331956,16.9399121 5.27464615,17.043033 5.19948132,17.1316484 L4.16959121,18.4909451 C4.32677802,18.6697582 4.51534945,18.8752088 4.71948132,19.0790769 L4.81996484,19.1798242 C5.02488791,19.3847473 5.23139341,19.5738462 5.41047033,19.7312967 L6.79930549,18.6876923 C7.14928352,18.4244835 7.62559121,18.4484835 7.94708571,18.718022 C8.62356923,19.1276044 9.35332747,19.4301099 10.1186901,19.6184176 C10.4860747,19.7086154 10.7611516,20.0137582 10.812844,20.3885275 L11.052844,22.1265495 Z M11.9996571,24.0001319 L11.8575033,24.0001319 C10.9513055,24.0001319 10.1550857,23.8996484 10.1215912,23.8951648 C9.70805275,23.8424176 9.38128352,23.5188132 9.32431648,23.1058022 L9.06664615,21.2393407 C8.49407473,21.0576264 7.94049231,20.8231648 7.41064615,20.5375385 L5.93530549,21.6462857 C5.60326154,21.8957802 5.14515165,21.8926154 4.81627253,21.6383736 C4.78937143,21.6178022 4.15534945,21.1259341 3.51447033,20.4853187 L3.41398681,20.3848352 C2.77310769,19.743956 2.28123956,19.1099341 2.26066813,19.083033 C2.00563516,18.7530989 2.00326154,18.2934066 2.25512967,17.9610989 L3.39447033,16.4567473 C3.11807473,15.9234725 2.89258022,15.366989 2.7200967,14.792044 L0.890821978,14.5325275 C0.479393407,14.4742418 0.157371429,14.148 0.104887912,13.736044 C0.100668132,13.7025495 -7.91208786e-05,12.9060659 -7.91208786e-05,11.9998681 L-7.91208786e-05,11.8577143 C-7.91208786e-05,10.9515165 0.100668132,10.155033 0.104887912,10.1215385 C0.157635165,9.708 0.481503297,9.38123077 0.894778022,9.32426374 L2.76625055,9.06712088 C2.9477011,8.4963956 3.1818989,7.94413187 3.46647033,7.41613187 L2.35376703,5.93551648 C2.10400879,5.60347253 2.10717363,5.14536264 2.36141538,4.81648352 C2.38198681,4.78984615 2.87385495,4.15556044 3.51473407,3.51468132 L3.61521758,3.4141978 C4.2560967,2.77331868 4.89038242,2.28145055 4.91701978,2.26061538 C5.24695385,2.00584615 5.70717363,2.00347253 6.03948132,2.2556044 L7.54726154,3.39916484 C8.07895385,3.1232967 8.63411868,2.89832967 9.20695385,2.72584615 L9.46726154,0.891032967 C9.52554725,0.479604396 9.85178901,0.157846154 10.2637451,0.105098901 C10.2972396,0.100615385 11.0937231,0.000131868132 12.0001846,0.000131868132 L12.1423385,0.000131868132 C13.0488,0.000131868132 13.8452835,0.100615385 13.878778,0.105098901 C14.2925802,0.15810989 14.6190857,0.482241758 14.675789,0.895516484 L14.9324044,2.76936264 C15.5031297,2.95002198 16.0548659,3.18369231 16.5826022,3.46773626 L18.0642725,2.35397802 C18.3965802,2.10395604 18.8546901,2.10738462 19.1835692,2.36162637 C19.2102066,2.38246154 19.8444923,2.87432967 20.4853714,3.51494505 L20.5858549,3.61542857 C21.2269978,4.25630769 21.7188659,4.89059341 21.7394374,4.91723077 C21.9944703,5.24742857 21.9965802,5.70764835 21.7441846,6.03995604 L20.6019429,7.5450989 C20.8783385,8.07705495 21.1040967,8.63301099 21.276844,9.20663736 L23.1095473,9.46773626 C23.5207121,9.52628571 23.8422066,9.85226374 23.8949538,10.2642198 C23.8991736,10.2977143 23.9999209,11.0941978 23.9999209,12.0001319 L23.9999209,12.1425495 C23.9999209,13.0487473 23.8991736,13.8452308 23.8949538,13.8787253 C23.8419429,14.2925275 23.5180747,14.6192967 23.1048,14.676 L21.2359648,14.9320879 C21.0545143,15.5038681 20.8203165,16.0563956 20.5352176,16.5851868 L21.6463385,18.065011 C21.895833,18.3970549 21.8926681,18.8551648 21.6384264,19.1837802 C21.6178549,19.2104176 21.1257231,19.8447033 20.4851077,20.4853187 L20.3846242,20.5858022 C19.7437451,21.2269451 19.1094593,21.7188132 19.082822,21.7396484 C18.7528879,21.9944176 18.2924044,21.9967912 17.9600967,21.7446593 L16.451789,20.5992527 C15.9203604,20.8745934 15.3657231,21.099033 14.7931516,21.2712527 L14.5325802,23.1092308 C14.4742945,23.5206593 14.1480527,23.8424176 13.735833,23.8951648 C13.7023385,23.8996484 12.9061187,24.0001319 11.9996571,24.0001319 L11.9996571,24.0001319 Z" id="Fill-3" fill="#71777C" mask="url(#mask-2)"></path>
                    </g>
                </g>
            </g>
        </g>
    </g>
</svg>