<?xml version="1.0" encoding="UTF-8" standalone="no"?>
<svg width="19px" height="21px" viewBox="0 0 19 21" version="1.1" xmlns="http://www.w3.org/2000/svg" xmlns:xlink="http://www.w3.org/1999/xlink">
    <!-- Generator: Sketch 3.6.1 (26313) - http://www.bohemiancoding.com/sketch -->
    <title>edit</title>
    <desc>Created with Sketch.</desc>
    <defs>
        <path id="path-1" d="M0,0 L18.6923077,0 L18.6923077,21 L0,21 L0,0 Z"></path>
        <path id="path-3" d="M0,0 L18.6923077,0 L18.6923077,21 L0,21"></path>
    </defs>
    <g id="Desktop" stroke="none" stroke-width="1" fill="none" fill-rule="evenodd">
        <g id="Room---Attendee---Profile-Dropdown" transform="translate(-830.000000, -893.000000)">
            <g id="Question-(Normal)" transform="translate(238.000000, 857.000000)">
                <g id="edit" transform="translate(592.000000, 36.000000)">
                    <g id="Group-3">
                        <mask id="mask-2" fill="white">
                            <use xlink:href="#path-1"></use>
                        </mask>
                        <g id="Clip-2"></g>
                        <path d="M7.27373077,10.8846923 L6.82973077,12.0205385 L7.93857692,11.5809231 L17.0274231,2.37184615 L16.3431923,1.67838462 L7.27373077,10.8846923 Z M5.6055,13.9433077 C5.42596154,13.9433077 5.24942308,13.8733846 5.11719231,13.7418462 C4.92196154,13.5473077 4.86034615,13.2556154 4.96073077,12.999 L6.03588462,10.2482308 C6.07003846,10.1607692 6.12173077,10.0813846 6.1875,10.0144615 L15.8495769,0.206538462 C15.9795,0.0743076923 16.1571923,0 16.3425,0 L16.3427308,0 C16.5280385,0 16.7055,0.0740769231 16.8354231,0.206076923 L18.4928077,1.88561538 C18.7588846,2.15538462 18.7588846,2.58876923 18.4928077,2.85830769 L8.82173077,12.657 C8.75457692,12.7253077 8.67357692,12.7788462 8.58426923,12.8141538 L5.86073077,13.8946154 C5.77811538,13.9273846 5.69157692,13.9433077 5.6055,13.9433077 L5.6055,13.9433077 Z" id="Fill-1" fill="#71777C" mask="url(#mask-2)"></path>
                    </g>
                    <g id="Group-6">
                        <mask id="mask-4" fill="white">
                            <use xlink:href="#path-3"></use>
                        </mask>
                        <g id="Clip-5"></g>
                        <path d="M14.0380385,21 L0.922961538,21 C0.413192308,21 -0.000115384615,20.5866923 -0.000115384615,20.0769231 L-0.000115384615,2.49738462 C-0.000115384615,1.98761538 0.413192308,1.57430769 0.922961538,1.57430769 L10.5169615,1.57430769 C11.0267308,1.57430769 11.4400385,1.98761538 11.4400385,2.49738462 C11.4400385,3.00715385 11.0267308,3.42046154 10.5169615,3.42046154 L1.84603846,3.42046154 L1.84603846,19.1538462 L13.1149615,19.1538462 L13.1149615,10.7529231 C13.1149615,10.2431538 13.5282692,9.82984615 14.0380385,9.82984615 C14.5478077,9.82984615 14.9611154,10.2431538 14.9611154,10.7529231 L14.9611154,20.0769231 C14.9611154,20.5866923 14.5478077,21 14.0380385,21" id="Fill-4" fill="#71777C" mask="url(#mask-4)"></path>
                    </g>
                </g>
            </g>
        </g>
    </g>
</svg>