<?xml version="1.0" encoding="UTF-8" standalone="no"?>
<svg width="21px" height="17px" viewBox="0 0 21 17" version="1.1" xmlns="http://www.w3.org/2000/svg" xmlns:xlink="http://www.w3.org/1999/xlink">
    <!-- Generator: Sketch 3.6.1 (26313) - http://www.bohemiancoding.com/sketch -->
    <title>exit</title>
    <desc>Created with Sketch.</desc>
    <defs></defs>
    <g id="Desktop" stroke="none" stroke-width="1" fill="none" fill-rule="evenodd">
        <g id="Room---Attendee---Room-Settings" transform="translate(-669.000000, -838.000000)" fill="#71777C">
            <g id="Room-Settings-Modal" transform="translate(470.000000, 61.000000)">
                <path d="M219.735674,784.822297 L216.158141,781.186365 C215.803196,780.825689 215.225239,780.822932 214.86687,781.180162 C214.508728,781.537162 214.505761,782.119068 214.860707,782.479514 L216.9025,784.554662 L205.82363,784.581081 C205.319402,784.582459 204.9115,784.994595 204.91287,785.502068 C204.914011,786.009081 205.32237,786.418919 205.825913,786.418919 L205.827967,786.418919 L216.893141,786.39273 L214.860707,788.458459 C214.505761,788.818905 214.508728,789.400811 214.86687,789.757811 C215.044913,789.935392 215.277283,790.023838 215.509424,790.023838 C215.744533,790.023838 215.979641,789.933095 216.158141,789.751608 L219.735674,786.115446 C220.088109,785.757297 220.088109,785.180446 219.735674,784.822297 M212.695652,788.878635 L212.695652,793.081081 C212.695652,793.588554 212.328837,794 211.824609,794 L199.913043,794 C199.408815,794 199,793.588554 199,793.081081 L199,777.918919 C199,777.411446 199.408815,777 199.913043,777 L211.824609,777 C212.328837,777 212.695652,777.411446 212.695652,777.918919 L212.695652,782.121365 C212.695652,782.628838 212.286837,783.040284 211.782609,783.040284 C211.27838,783.040284 210.869565,782.628838 210.869565,782.121365 L210.869565,778.837838 L200.826087,778.837838 L200.826087,792.162162 L210.869565,792.162162 L210.869565,788.878635 C210.869565,788.371162 211.27838,787.959716 211.782609,787.959716 C212.286837,787.959716 212.695652,788.371162 212.695652,788.878635" id="exit"></path>
            </g>
        </g>
    </g>
</svg>