<?xml version="1.0" encoding="utf-8"?>
<!-- Generator: Adobe Illustrator 17.0.2, SVG Export Plug-In . SVG Version: 6.00 Build 0)  -->
<!DOCTYPE svg PUBLIC "-//W3C//DTD SVG 1.0//EN" "http://www.w3.org/TR/2001/REC-SVG-20010904/DTD/svg10.dtd">
<svg version="1.0" id="Layer_1" xmlns="http://www.w3.org/2000/svg" xmlns:xlink="http://www.w3.org/1999/xlink" x="0px" y="0px"
	 width="88.8px" height="90.8px" viewBox="0 0 88.8 90.8" enable-background="new 0 0 88.8 90.8" xml:space="preserve">
<g>
	<path fill="#FFFFFF" d="M87.7,41.6L47.2,1.2C46.5,0.4,45.5,0,44.4,0s-2.1,0.4-2.8,1.2L1.2,41.6c-1.6,1.6-1.6,4.1,0,5.7
		c1.6,1.6,4.1,1.6,5.7,0L44.4,9.7L82,47.3c0.8,0.8,1.8,1.2,2.8,1.2c1,0,2-0.4,2.8-1.2C89.2,45.7,89.2,43.2,87.7,41.6z"/>
	<path fill="#FFFFFF" d="M72.3,44.3c-2.2,0-4,1.8-4,4v34.5H58V58.5c0-2.2-1.8-4-4-4H34.8c-2.2,0-4,1.8-4,4v24.3H20.6V48.3
		c0-2.2-1.8-4-4-4s-4,1.8-4,4v38.5c0,2.2,1.8,4,4,4h18.2c2.2,0,4-1.8,4-4V62.5H50v24.3c0,2.2,1.8,4,4,4h18.2c2.2,0,4-1.8,4-4V48.3
		C76.3,46.1,74.5,44.3,72.3,44.3z"/>
</g>
</svg>
