<?xml version="1.0" encoding="UTF-8" standalone="no"?>
<svg width="21px" height="21px" viewBox="0 0 21 21" version="1.1" xmlns="http://www.w3.org/2000/svg" xmlns:xlink="http://www.w3.org/1999/xlink">
    <!-- Generator: Sketch 3.6.1 (26313) - http://www.bohemiancoding.com/sketch -->
    <title>link</title>
    <desc>Created with Sketch.</desc>
    <defs>
        <path id="path-1" d="M0,0 L21,0 L21,21 L0,21 L0,0 Z"></path>
    </defs>
    <g id="Desktop" stroke="none" stroke-width="1" fill="none" fill-rule="evenodd">
        <g id="Room---Archived---Host---Room-Settings" transform="translate(-530.000000, -522.000000)">
            <g id="Room-Settings-Modal" transform="translate(470.000000, 61.000000)">
                <g id="link" transform="translate(60.000000, 461.000000)">
                    <path d="M2.20436087,5.77383587 L6.34592609,9.91540109 L9.91546957,6.34562935 L5.77436087,2.20429239 L2.20436087,5.77383587 Z M6.34592609,12.1197163 C6.1037413,12.1197163 5.87137174,12.0233902 5.70017609,11.8521946 L0.26733913,6.41935761 C0.0961434783,6.24816196 4.56521739e-05,6.01602065 4.56521739e-05,5.77383587 C4.56521739e-05,5.53165109 0.0961434783,5.29950978 0.267567391,5.12831413 L5.12883913,0.267498913 C5.48538261,-0.0892728261 6.06356739,-0.0890445652 6.42011087,0.267498913 L11.852263,5.70010761 C12.2088065,6.05642283 12.2088065,6.63460761 11.852263,6.99115109 L6.99144783,11.8521946 C6.82025217,12.0233902 6.58811087,12.1197163 6.34592609,12.1197163 L6.34592609,12.1197163 Z" id="Fill-1" fill="#A8ADB1"></path>
                    <g id="Group-5">
                        <mask id="mask-2" fill="white">
                            <use xlink:href="#path-1"></use>
                        </mask>
                        <g id="Clip-4"></g>
                        <path d="M11.0846902,14.6541652 L15.2260272,18.7957304 L18.7957989,15.226187 L14.654462,11.0846217 L11.0846902,14.6541652 Z M15.2260272,21.0000457 L15.2260272,21.0000457 C14.9838424,21.0000457 14.7517011,20.9037196 14.5802772,20.7325239 L9.14789674,15.299687 C8.79135326,14.9433717 8.79135326,14.3649587 9.14789674,14.0086435 L14.008712,9.14782826 C14.1801359,8.97663261 14.4122772,8.88030652 14.654462,8.88030652 C14.8966467,8.88030652 15.128788,8.97663261 15.2999837,9.14782826 L20.7325924,14.5806652 C21.0891359,14.9369804 21.0891359,15.5151652 20.7325924,15.8717087 L15.8717772,20.7325239 C15.7003533,20.9037196 15.468212,21.0000457 15.2260272,21.0000457 L15.2260272,21.0000457 Z" id="Fill-3" fill="#A8ADB1" mask="url(#mask-2)"></path>
                    </g>
                    <path d="M13.5634663,14.4765098 C13.3297272,14.4765098 13.0962163,14.3872598 12.9179446,14.208988 L6.7909663,8.08223804 C6.43419457,7.72592283 6.43419457,7.14773804 6.79073804,6.79119457 C7.14750978,6.43465109 7.7254663,6.43465109 8.08200978,6.79119457 L14.208988,12.9179446 C14.5657598,13.2742598 14.5657598,13.8526728 14.2092163,14.208988 C14.0307163,14.3872598 13.7972054,14.4765098 13.5634663,14.4765098" id="Fill-6" fill="#A8ADB1"></path>
                </g>
            </g>
        </g>
    </g>
</svg>