<?xml version="1.0" encoding="UTF-8" standalone="no"?>
<svg width="16px" height="16px" viewBox="0 0 16 16" version="1.1" xmlns="http://www.w3.org/2000/svg" xmlns:xlink="http://www.w3.org/1999/xlink">
    <!-- Generator: Sketch 3.6.1 (26313) - http://www.bohemiancoding.com/sketch -->
    <title>Page 1</title>
    <desc>Created with Sketch.</desc>
    <defs></defs>
    <g id="Desktop" stroke="none" stroke-width="1" fill="none" fill-rule="evenodd">
        <g id="Room---Attendee---Profile-Dropdown" transform="translate(-269.000000, -1031.000000)" fill="#71777C">
            <g id="Question-(Normal)" transform="translate(238.000000, 857.000000)">
                <g id="footer" transform="translate(0.000000, 151.000000)">
                    <g id="Page-1" transform="translate(31.000000, 23.000000)">
                        <path d="M8,1.39130435 C4.356,1.39130435 1.39130435,4.356 1.39130435,8 C1.39130435,11.644 4.356,14.6086957 8,14.6086957 C11.644,14.6086957 14.6086957,11.644 14.6086957,8 C14.6086957,4.356 11.644,1.39130435 8,1.39130435 M8,16 C3.58886957,16 0,12.4111304 0,8 C0,3.58886957 3.58886957,0 8,0 C12.4111304,0 16,3.58886957 16,8 C16,12.4111304 12.4111304,16 8,16" id="Fill-1"></path>
                        <path d="M8,8.69565217 C7.61582609,8.69565217 7.30434783,8.38417391 7.30434783,8 L7.30434783,3.85408696 C7.30434783,3.46991304 7.61582609,3.15843478 8,3.15843478 C8.38417391,3.15843478 8.69565217,3.46991304 8.69565217,3.85408696 L8.69565217,8 C8.69565217,8.38417391 8.38417391,8.69565217 8,8.69565217" id="Fill-3"></path>
                        <path d="M10.1635478,10.8590435 C9.98546087,10.8590435 9.80754783,10.7910435 9.67154783,10.6552174 L7.50824348,8.49191304 C7.2365913,8.22026087 7.2365913,7.77973913 7.50824348,7.50808696 C7.77989565,7.23643478 8.22041739,7.23643478 8.49206957,7.50808696 L10.6555478,9.67156522 C10.9272,9.94304348 10.9272,10.3837391 10.6555478,10.6552174 C10.5195478,10.7910435 10.3416348,10.8590435 10.1635478,10.8590435" id="Fill-5"></path>
                    </g>
                </g>
            </g>
        </g>
    </g>
</svg>