<?xml version="1.0" encoding="UTF-8" standalone="no"?>
<svg width="19px" height="20px" viewBox="0 0 19 20" version="1.1" xmlns="http://www.w3.org/2000/svg" xmlns:xlink="http://www.w3.org/1999/xlink">
    <!-- Generator: Sketch 3.6.1 (26313) - http://www.bohemiancoding.com/sketch -->
    <title>trash</title>
    <desc>Created with Sketch.</desc>
    <defs></defs>
    <g id="Desktop" stroke="none" stroke-width="1" fill="none" fill-rule="evenodd">
        <g id="Room---Attendee---Profile-Dropdown" transform="translate(-791.000000, -893.000000)" fill="#71777C">
            <g id="Question-(Normal)" transform="translate(238.000000, 857.000000)">
                <g id="trash" transform="translate(553.000000, 36.000000)">
                    <path d="M14.8586087,20 L3.83686957,20 C3.37447826,20 2.99295652,19.6380435 2.9686087,19.1763043 L2.30513043,6.60630435 C2.27991304,6.12673913 2.64817391,5.7173913 3.12773913,5.69217391 C3.6083913,5.66934783 4.01665217,6.03521739 4.04186957,6.51456522 L4.66186957,18.2608696 L14.0338261,18.2608696 L14.6538261,6.51456522 C14.6790435,6.035 15.0905652,5.66456522 15.5679565,5.69217391 C16.0475217,5.7173913 16.4157826,6.12673913 16.3905652,6.60630435 L15.727087,19.1763043 C15.7025217,19.6380435 15.321,20 14.8586087,20" id="Fill-1"></path>
                    <path d="M17.826087,4.47328261 L0.869565217,4.47328261 C0.389347826,4.47328261 0,4.08393478 0,3.60371739 C0,3.1235 0.389347826,2.73415217 0.869565217,2.73415217 L17.826087,2.73415217 C18.3063043,2.73415217 18.6956522,3.1235 18.6956522,3.60371739 C18.6956522,4.08393478 18.3063043,4.47328261 17.826087,4.47328261" id="Fill-3"></path>
                    <path d="M12.3428043,4.20069565 C11.922587,4.20069565 11.5819348,3.86004348 11.5819348,3.43982609 L11.5819348,1.63047826 L7.11345652,1.63047826 L7.11345652,3.43982609 C7.11345652,3.86004348 6.77280435,4.20069565 6.35258696,4.20069565 C5.93236957,4.20069565 5.59171739,3.86004348 5.59171739,3.43982609 L5.59171739,0.869608696 C5.59171739,0.449391304 5.93236957,0.10873913 6.35258696,0.10873913 L12.3428043,0.10873913 C12.7630217,0.10873913 13.1036739,0.449391304 13.1036739,0.869608696 L13.1036739,3.43982609 C13.1036739,3.86004348 12.7630217,4.20069565 12.3428043,4.20069565" id="Fill-5"></path>
                    <path d="M7.53852174,16.8654565 C7.12656522,16.8654565 6.78786957,16.5365435 6.77808696,16.1226304 L6.557,6.74654348 C6.547,6.32654348 6.8796087,5.97784783 7.2996087,5.96784783 C7.30569565,5.96763043 7.312,5.96763043 7.31786957,5.96763043 C7.72982609,5.96763043 8.06852174,6.29654348 8.07830435,6.71045652 L8.2993913,16.0865435 C8.3093913,16.5067609 7.977,16.8552391 7.55678261,16.8652391 C7.55069565,16.8654565 7.5446087,16.8654565 7.53852174,16.8654565" id="Fill-7"></path>
                    <path d="M11.1237826,16.9157609 C11.1176957,16.9157609 11.1116087,16.9157609 11.1055217,16.9155435 C10.6853043,16.9055435 10.352913,16.5570652 10.362913,16.1368478 L10.584,6.76076087 C10.5937826,6.34076087 10.9368261,6.0101087 11.3626957,6.01815217 C11.7826957,6.02815217 12.1153043,6.37684783 12.1053043,6.79684783 L11.8842174,16.1729348 C11.8744348,16.5868478 11.5357391,16.9157609 11.1237826,16.9157609" id="Fill-9"></path>
                </g>
            </g>
        </g>
    </g>
</svg>