<?xml version="1.0" encoding="UTF-8" standalone="no"?>
<svg width="22px" height="22px" viewBox="0 0 22 22" version="1.1" xmlns="http://www.w3.org/2000/svg" xmlns:xlink="http://www.w3.org/1999/xlink">
    <!-- Generator: Sketch 3.6.1 (26313) - http://www.bohemiancoding.com/sketch -->
    <title>view-presentation</title>
    <desc>Created with Sketch.</desc>
    <defs></defs>
    <g id="Desktop" stroke="none" stroke-width="1" fill="none" fill-rule="evenodd">
        <g id="Room---Presenter-Mode" transform="translate(-1218.000000, -28.000000)" fill="#3A3B3D">
            <g id="Host-View---Presentation" transform="translate(1165.000000, 18.000000)">
                <path d="M54.9130435,22.5294783 L73.0869565,22.5294783 L73.0869565,11.9130435 L54.9130435,11.9130435 L54.9130435,22.5294783 Z M74.0434783,10 L53.9565217,10 C53.4282826,10 53,10.4282826 53,10.9565217 L53,23.486 C53,24.014 53.4282826,24.4425217 53.9565217,24.4425217 L63.0434783,24.4425217 L63.0434783,25.6740435 L58.3505435,30.3672174 C57.9767826,30.7405 57.9767826,31.3464565 58.3505435,31.7197391 C58.7240652,32.0935 59.3295435,32.0935 59.7033043,31.7197391 L63.0434783,28.3795652 L63.0434783,29.6218478 C63.0434783,30.150087 63.4717609,30.5783696 64,30.5783696 C64.5282391,30.5783696 64.9565217,30.150087 64.9565217,29.6218478 L64.9565217,28.3795652 L68.2966957,31.7197391 C68.4836957,31.9065 68.7283261,32 68.9731957,32 C69.2180652,32 69.4626957,31.9065 69.6494565,31.7197391 C70.0232174,31.3464565 70.0232174,30.7405 69.6494565,30.3672174 L64.9565217,25.6740435 L64.9565217,24.4425217 L74.0434783,24.4425217 C74.5717174,24.4425217 75,24.014 75,23.486 L75,10.9565217 C75,10.4282826 74.5717174,10 74.0434783,10 L74.0434783,10 Z" id="view-presentation"></path>
            </g>
        </g>
    </g>
</svg>