<?xml version="1.0" encoding="UTF-8" standalone="no"?>
<svg width="14px" height="16px" viewBox="0 0 14 16" version="1.1" xmlns="http://www.w3.org/2000/svg" xmlns:xlink="http://www.w3.org/1999/xlink">
    <!-- Generator: Sketch 3.6.1 (26313) - http://www.bohemiancoding.com/sketch -->
    <title>arrow-up-filled-red</title>
    <desc>Created with Sketch.</desc>
    <defs>
        <path id="path-1" d="M0,0 L13.6,0 L13.6,16 L0,16 L0,0 Z"></path>
    </defs>
    <g id="Desktop" stroke="none" stroke-width="1" fill="none" fill-rule="evenodd">
        <g id="Room---Host-(Paused)" transform="translate(-384.000000, -800.000000)">
            <g id="Question-(Liked)" transform="translate(238.000000, 563.000000)">
                <g id="Footer" transform="translate(0.000000, 215.000000)">
                    <g id="arrow-up-filled-red" transform="translate(146.000000, 22.000000)">
                        <mask id="mask-2" fill="white">
                            <use xlink:href="#path-1"></use>
                        </mask>
                        <g id="Clip-2"></g>
                        <path d="M9.30186,16 L4.29826,16 C3.85646,16 3.49826,15.6418 3.49826,15.2 L3.49826,7.7234 L0.80006,7.7234 C0.47786,7.7234 0.18726,7.5302 0.06246,7.2332 C-0.06234,6.9364 0.00306,6.5934 0.22866,6.3634 L6.22866,0.2402 C6.37906,0.0866 6.58506,0 6.80006,0 C7.01506,0 7.22086,0.0866 7.37146,0.2402 L13.37146,6.3634 C13.59686,6.5934 13.66226,6.9364 13.53746,7.2332 C13.41286,7.5302 13.12206,7.7234 12.80006,7.7234 L10.10186,7.7234 L10.10186,15.2 C10.10186,15.6418 9.74366,16 9.30186,16 L9.30186,16 Z" id="Fill-1" fill="#FD6764" mask="url(#mask-2)"></path>
                    </g>
                </g>
            </g>
        </g>
    </g>
</svg>