<?xml version="1.0" encoding="UTF-8" standalone="no"?>
<svg width="18px" height="21px" viewBox="0 0 18 21" version="1.1" xmlns="http://www.w3.org/2000/svg" xmlns:xlink="http://www.w3.org/1999/xlink">
    <!-- Generator: Sketch 3.6.1 (26313) - http://www.bohemiancoding.com/sketch -->
    <title>arrow-up-filled</title>
    <desc>Created with Sketch.</desc>
    <defs>
        <path id="path-1" d="M0,0 L17.85,0 L17.85,21 L0,21 L0,0 Z"></path>
    </defs>
    <g id="Desktop" stroke="none" stroke-width="1" fill="none" fill-rule="evenodd">
        <g id="Room---Presenter-Mode" transform="translate(-289.000000, -402.000000)">
            <g id="arrow-up-filled" transform="translate(289.000000, 402.000000)">
                <mask id="mask-2" fill="white">
                    <use xlink:href="#path-1"></use>
                </mask>
                <g id="Clip-2"></g>
                <path d="M12.2086912,21 L5.64146625,21 C5.06160375,21 4.59146625,20.5298625 4.59146625,19.95 L4.59146625,10.1369625 L1.05007875,10.1369625 C0.62719125,10.1369625 0.24577875,9.8833875 0.08197875,9.493575 C-0.08182125,9.104025 0.00401625,8.6538375 0.30011625,8.3519625 L8.17511625,0.3152625 C8.37251625,0.1136625 8.64289125,0 8.92507875,0 C9.20726625,0 9.47737875,0.1136625 9.67504125,0.3152625 L17.5500412,8.3519625 C17.8458787,8.6538375 17.9317162,9.104025 17.7679162,9.493575 C17.6043787,9.8833875 17.2227037,10.1369625 16.8000787,10.1369625 L13.2586912,10.1369625 L13.2586912,19.95 C13.2586912,20.5298625 12.7885537,21 12.2086912,21 L12.2086912,21 Z" id="Fill-1" fill="#71777C" mask="url(#mask-2)"></path>
            </g>
        </g>
    </g>
</svg>